<svg version="1.2" xmlns="http://www.w3.org/2000/svg" viewBox="0 0 720 800" width="720" height="800">
	<style>
		.s0 { fill: #ffffff } 
	</style>
	<g id="Capa 1">
		<g id="&lt;Group&gt;">
			<g id="&lt;Group&gt;">
				<path id="&lt;Compound Path&gt;" fill-rule="evenodd" class="s0" d="m700.14 207.17v386.12l-334.38 193.05-334.39-193.05v-386.12l334.39-193.06zm-45.12 26.06l-75.62-43.66-54.29-31.36-289.27 167.01v150.04l72.41 41.81-83.71 48.33-72.43-41.81v-246.69l289.25-167.04-75.61-43.65-289.26 167.02v334.02l88.75 51.23 41.51 23.98 0.13 0.07 288.8-167.27v-150.04l-72.09-41.63 83.7-48.33 72.11 41.64v246.69l-289.27 166.99 75.62 43.67 289.27-167z"/>
				<g id="&lt;Group&gt;">
					<path id="&lt;Path&gt;" class="s0" d="m421.29 405.43c-2.34 29.41-26.16 53.21-55.55 55.58-37.42 3-68.54-28.12-65.51-65.52 2.37-29.39 26.23-53.19 55.62-55.51 37.34-2.94 68.4 28.1 65.44 65.45z"/>
				</g>
			</g>
			<g id="&lt;Group&gt;">
				<g id="&lt;Group&gt;">
					<path id="&lt;Compound Path&gt;" fill-rule="evenodd" class="s0" d="m-78.9 808.22c64.7 0 109.1 43.49 109.1 105.76 0 62.58-44.4 106.07-109.1 106.07-65 0-109.7-43.64-109.7-106.22 0-62.27 44.7-105.61 109.7-105.61zm0.46 165.92c34.7 0 57.88-24.55 57.88-60.16 0-35.3-23.18-59.55-57.88-59.55-35.31 0-59.4 24.25-59.4 59.55 0 35.61 24.09 60.16 59.4 60.16z"/>
					<path id="&lt;Compound Path&gt;" class="s0" d="m120.43 880.84c5.29 0 10.72 0.97 16.29 2.78l-2.65 38.28c-5.56-1.94-11.27-2.92-16.84-2.92-16.57 0-30.63 9.05-30.63 33.97v64.32h-43.85v-107.12l42.6-26.96 0.14 18.67c6.26-13.23 19.49-21.02 34.94-21.02z"/>
					<path id="&lt;Compound Path&gt;" fill-rule="evenodd" class="s0" d="m151.89 1017.27v-169.34l42.6-26.96v76.71c7.8-9.74 20.33-16.84 40.51-16.84 37.73 0 62.37 29.79 62.37 69.88 0 39.82-24.64 69.33-62.37 69.33-16.56 0-31.88-5.43-39.25-13.08l-1.4 10.3zm43.3-66.83c0 17.82 12.11 30.35 28.54 30.35 16.7 0 29.51-12.53 29.51-30.35 0-18.51-12.67-30.34-29.51-30.34-16.43 0-28.54 12.38-28.54 30.34z"/>
					<path id="&lt;Compound Path&gt;" class="s0" d="m315.89 842.55c0-14.2 9.74-24.08 23.94-24.08 14.2 0 24.22 9.74 24.22 24.08 0 14.2-10.02 23.95-24.22 23.95-14.06 0-23.94-9.75-23.94-23.95zm46.08 174.72h-43.86v-133.65h43.86z"/>
					<path id="&lt;Compound Path&gt;" class="s0" d="m476.96 1017.27v-74.34c0-14.9-11.84-22-22.42-22-10.99 0-22.27 7.1-22.27 22v74.34h-43.85v-116.98l41.63-26.35-0.01 23.74c9.47-11.97 25.62-16.84 41.35-16.84 25.2 0 49.42 17.68 49.42 49.56v86.87z"/>
					<path id="&lt;Compound Path&gt;" class="s0" d="m589.02 883.62v75.73c0 14.9 11.84 22 22.42 22 11 0 22.27-7.1 22.27-22v-75.73h43.85v133.65h-40.23l-1.39-12.67c-9.47 11.97-25.62 16.84-41.35 16.84-25.2 0-49.42-17.68-49.42-49.56v-88.26z"/>
					<path id="&lt;Compound Path&gt;" class="s0" d="m880.26 942.93c0-14.9-10.86-22-21.86-22-10.99 0-22.55 7.1-22.55 22v74.34h-43.85v-74.34c0-14.9-11.28-22-21.86-22-11 0-22.27 7.1-22.27 22v74.34h-43.86v-121l41.95-26.55-0.32 27.96c9.46-11.97 25.61-16.84 41.35-16.84 17.81 0 34.94 7.51 42.04 22.27 10.86-15.31 28.12-22.27 44.97-22.27 25.75 0 50.11 16.98 50.11 49.56v86.87h-43.85z"/>
				</g>
				<g id="&lt;Group&gt;">
					<path id="&lt;Compound Path&gt;" class="s0" d="m84.13 1139.7v-97.62h15.1l59.45 74.4v-74.4h15.1v97.62h-15.24l-59.31-73.68v73.68z"/>
					<path id="&lt;Compound Path&gt;" fill-rule="evenodd" class="s0" d="m227.99 1069.25c20.13 0 33.21 14.96 33.21 33.43 0 2.16-0.14 4.39-0.57 6.61h-53.56c0.65 10.36 9.49 18.48 21.42 18.48 8.63 0 15.53-3.67 20.71-11.79l10.49 7.62c-6.39 11.5-18.97 17.54-31.2 17.54-20.84 0-36.15-15.38-36.15-35.87 0-20.56 14.73-36.02 35.65-36.02zm18.76 29.41c-0.86-9.71-8.98-16.54-18.9-16.54-10.57 0-18.62 6.83-20.42 16.54z"/>
					<path id="&lt;Compound Path&gt;" class="s0" d="m268.83 1082.77v-12.08h12.51v-22.14h13.88v22.14h21.92v12.08h-21.78v34.5c0 7.34 4.24 11 11.29 11 3.3 0 7.83-0.93 11.21-2.37l1.87 12.22c-3.45 1.8-9.56 3.02-15.1 3.02-14.45 0-23.5-8.12-23.5-22.14v-36.23z"/>
					<path id="&lt;Compound Path&gt;" class="s0" d="m325.05 1070.69h15.03l15.17 55.07 16.1-54.35h15.1l16.1 54.35 15.17-55.07h15.02l-20.34 69.01h-19.41l-14.09-49.1-14.09 49.1h-19.41z"/>
					<path id="&lt;Compound Path&gt;" fill-rule="evenodd" class="s0" d="m440.81 1105.2c0-20.2 15.67-35.95 36.66-35.95 20.99 0 36.66 15.75 36.66 35.95 0 20.2-15.67 35.94-36.66 35.94-20.99 0-36.66-15.74-36.66-35.94zm36.66 22.57c13.01 0 22.43-9.85 22.43-22.57 0-12.73-9.42-22.58-22.43-22.58-13.01 0-22.43 9.85-22.43 22.58 0 12.72 9.42 22.57 22.43 22.57z"/>
					<path id="&lt;Compound Path&gt;" class="s0" d="m530.89 1139.7v-69.01h14.31v9.42c3.88-7.55 10.42-10.86 17.97-10.86 5.39 0 9.49 1.73 9.49 1.73l-1.51 13.08c-0.79-0.29-3.88-1.58-8.41-1.58-7.62 0-17.54 4.03-17.54 19.63v37.59z"/>
					<path id="&lt;Compound Path&gt;" class="s0" d="m600.56 1038.49v62.18l30.12-29.98h19.55l-29.69 28.9 30.84 40.11h-18.04l-23.15-30.12-9.63 9.64v20.48h-14.38v-101.21z"/>
				</g>
			</g>
		</g>
	</g>
</svg>